<svg data-v-423bf9ae="" xmlns="http://www.w3.org/2000/svg" viewBox="0 0 374.114249093192 60" class="font"><!----><!----><defs data-v-423bf9ae=""><linearGradient data-v-423bf9ae="" gradientTransform="rotate(25)" id="4ca77336-014f-40f3-86b1-4af99d99d3ae" x1="0%" y1="0%" x2="100%" y2="0%"><stop data-v-423bf9ae="" offset="0%" style="stop-color: rgb(81, 164, 251); stop-opacity: 1;"></stop><stop data-v-423bf9ae="" offset="100%" style="stop-color: rgb(81, 164, 251); stop-opacity: 1;"></stop></linearGradient></defs><g data-v-423bf9ae="" id="958279ce-a48e-4e13-bc83-6c40bff460ac" fill="url(#4ca77336-014f-40f3-86b1-4af99d99d3ae)" transform="matrix(5.714285714285714,0,0,5.714285714285714,0.7428626183952645,-18.057143109185354)"><path d="M2.73 13.66L2.73 13.66Q1.85 13.66 1.09 13.29L1.09 13.29L1.09 13.29Q0.34 12.92-0.13 12.25L-0.13 12.25L0.69 11.30L0.69 11.30Q1.50 12.46 2.73 12.46L2.73 12.46L2.73 12.46Q3.56 12.46 3.98 11.96L3.98 11.96L3.98 11.96Q4.41 11.45 4.41 10.47L4.41 10.47L4.41 4.97L0.87 4.97L0.87 3.75L5.80 3.75L5.80 10.40L5.80 10.40Q5.80 12.03 5.02 12.84L5.02 12.84L5.02 12.84Q4.24 13.66 2.73 13.66L2.73 13.66ZM11.63 13.64L11.63 13.64Q10.53 13.64 9.65 13.15L9.65 13.15L9.65 13.15Q8.76 12.66 8.27 11.79L8.27 11.79L8.27 11.79Q7.77 10.93 7.77 9.84L7.77 9.84L7.77 9.84Q7.77 8.75 8.27 7.89L8.27 7.89L8.27 7.89Q8.76 7.03 9.65 6.54L9.65 6.54L9.65 6.54Q10.53 6.06 11.63 6.06L11.63 6.06L11.63 6.06Q12.74 6.06 13.62 6.54L13.62 6.54L13.62 6.54Q14.49 7.03 14.99 7.89L14.99 7.89L14.99 7.89Q15.48 8.75 15.48 9.84L15.48 9.84L15.48 9.84Q15.48 10.93 14.99 11.79L14.99 11.79L14.99 11.79Q14.49 12.66 13.62 13.15L13.62 13.15L13.62 13.15Q12.74 13.64 11.63 13.64L11.63 13.64ZM11.63 12.46L11.63 12.46Q12.35 12.46 12.92 12.13L12.92 12.13L12.92 12.13Q13.48 11.80 13.80 11.21L13.80 11.21L13.80 11.21Q14.13 10.61 14.13 9.84L14.13 9.84L14.13 9.84Q14.13 9.07 13.80 8.48L13.80 8.48L13.80 8.48Q13.48 7.88 12.92 7.56L12.92 7.56L12.92 7.56Q12.35 7.24 11.63 7.24L11.63 7.24L11.63 7.24Q10.92 7.24 10.35 7.56L10.35 7.56L10.35 7.56Q9.79 7.88 9.46 8.48L9.46 8.48L9.46 8.48Q9.13 9.07 9.13 9.84L9.13 9.84L9.13 9.84Q9.13 10.61 9.46 11.21L9.46 11.21L9.46 11.21Q9.79 11.80 10.35 12.13L10.35 12.13L10.35 12.13Q10.92 12.46 11.63 12.46L11.63 12.46ZM21.28 6.06L21.28 6.06Q22.36 6.06 23.21 6.54L23.21 6.54L23.21 6.54Q24.07 7.01 24.55 7.87L24.55 7.87L24.55 7.87Q25.03 8.72 25.03 9.84L25.03 9.84L25.03 9.84Q25.03 10.96 24.55 11.82L24.55 11.82L24.55 11.82Q24.07 12.68 23.21 13.16L23.21 13.16L23.21 13.16Q22.36 13.64 21.28 13.64L21.28 13.64L21.28 13.64Q20.45 13.64 19.77 13.31L19.77 13.31L19.77 13.31Q19.08 12.99 18.63 12.38L18.63 12.38L18.63 13.55L17.35 13.55L17.35 3.16L18.69 3.16L18.69 7.25L18.69 7.25Q19.14 6.66 19.81 6.36L19.81 6.36L19.81 6.36Q20.48 6.06 21.28 6.06L21.28 6.06ZM21.17 12.46L21.17 12.46Q21.88 12.46 22.45 12.13L22.45 12.13L22.45 12.13Q23.02 11.80 23.35 11.21L23.35 11.21L23.35 11.21Q23.67 10.61 23.67 9.84L23.67 9.84L23.67 9.84Q23.67 9.07 23.35 8.48L23.35 8.48L23.35 8.48Q23.02 7.88 22.45 7.56L22.45 7.56L22.45 7.56Q21.88 7.24 21.17 7.24L21.17 7.24L21.17 7.24Q20.47 7.24 19.89 7.56L19.89 7.56L19.89 7.56Q19.32 7.88 19.00 8.48L19.00 8.48L19.00 8.48Q18.68 9.07 18.68 9.84L18.68 9.84L18.68 9.84Q18.68 10.61 19.00 11.21L19.00 11.21L19.00 11.21Q19.32 11.80 19.89 12.13L19.89 12.13L19.89 12.13Q20.47 12.46 21.17 12.46L21.17 12.46ZM29.95 13.66L29.95 13.66Q28.84 13.66 27.81 13.32L27.81 13.32L27.81 13.32Q26.78 12.98 26.19 12.43L26.19 12.43L26.71 11.34L26.71 11.34Q27.27 11.84 28.15 12.16L28.15 12.16L28.15 12.16Q29.02 12.47 29.95 12.47L29.95 12.47L29.95 12.47Q31.16 12.47 31.77 12.06L31.77 12.06L31.77 12.06Q32.37 11.65 32.37 10.96L32.37 10.96L32.37 10.96Q32.37 10.46 32.04 10.14L32.04 10.14L32.04 10.14Q31.71 9.83 31.23 9.66L31.23 9.66L31.23 9.66Q30.74 9.49 29.86 9.28L29.86 9.28L29.86 9.28Q28.76 9.02 28.08 8.75L28.08 8.75L28.08 8.75Q27.40 8.48 26.92 7.93L26.92 7.93L26.92 7.93Q26.43 7.38 26.43 6.44L26.43 6.44L26.43 6.44Q26.43 5.66 26.85 5.03L26.85 5.03L26.85 5.03Q27.26 4.40 28.10 4.02L28.10 4.02L28.10 4.02Q28.94 3.64 30.18 3.64L30.18 3.64L30.18 3.64Q31.05 3.64 31.89 3.86L31.89 3.86L31.89 3.86Q32.73 4.09 33.33 4.51L33.33 4.51L32.87 5.63L32.87 5.63Q32.26 5.24 31.56 5.03L31.56 5.03L31.56 5.03Q30.86 4.83 30.18 4.83L30.18 4.83L30.18 4.83Q28.99 4.83 28.40 5.26L28.40 5.26L28.40 5.26Q27.80 5.70 27.80 6.38L27.80 6.38L27.80 6.38Q27.80 6.89 28.14 7.20L28.14 7.20L28.14 7.20Q28.48 7.52 28.97 7.69L28.97 7.69L28.97 7.69Q29.47 7.87 30.32 8.06L30.32 8.06L30.32 8.06Q31.43 8.33 32.10 8.60L32.10 8.60L32.10 8.60Q32.77 8.86 33.26 9.41L33.26 9.41L33.26 9.41Q33.74 9.95 33.74 10.88L33.74 10.88L33.74 10.88Q33.74 11.65 33.32 12.29L33.32 12.29L33.32 12.29Q32.90 12.92 32.05 13.29L32.05 13.29L32.05 13.29Q31.19 13.66 29.95 13.66L29.95 13.66ZM42.29 9.88L42.29 9.88Q42.29 10.04 42.27 10.29L42.27 10.29L36.25 10.29L36.25 10.29Q36.37 11.27 37.11 11.87L37.11 11.87L37.11 11.87Q37.84 12.46 38.93 12.46L38.93 12.46L38.93 12.46Q40.26 12.46 41.08 11.56L41.08 11.56L41.82 12.43L41.82 12.43Q41.31 13.02 40.57 13.33L40.57 13.33L40.57 13.33Q39.82 13.64 38.89 13.64L38.89 13.64L38.89 13.64Q37.72 13.64 36.81 13.15L36.81 13.15L36.81 13.15Q35.90 12.67 35.40 11.80L35.40 11.80L35.40 11.80Q34.90 10.93 34.90 9.84L34.90 9.84L34.90 9.84Q34.90 8.76 35.39 7.90L35.39 7.90L35.39 7.90Q35.87 7.03 36.72 6.54L36.72 6.54L36.72 6.54Q37.56 6.06 38.63 6.06L38.63 6.06L38.63 6.06Q39.69 6.06 40.52 6.54L40.52 6.54L40.52 6.54Q41.36 7.03 41.83 7.90L41.83 7.90L41.83 7.90Q42.29 8.76 42.29 9.88L42.29 9.88ZM38.63 7.20L38.63 7.20Q37.66 7.20 37.01 7.78L37.01 7.78L37.01 7.78Q36.36 8.37 36.25 9.32L36.25 9.32L41.01 9.32L41.01 9.32Q40.89 8.39 40.24 7.79L40.24 7.79L40.24 7.79Q39.59 7.20 38.63 7.20L38.63 7.20ZM50.86 9.88L50.86 9.88Q50.86 10.04 50.83 10.29L50.83 10.29L44.81 10.29L44.81 10.29Q44.94 11.27 45.68 11.87L45.68 11.87L45.68 11.87Q46.41 12.46 47.50 12.46L47.50 12.46L47.50 12.46Q48.83 12.46 49.64 11.56L49.64 11.56L50.39 12.43L50.39 12.43Q49.88 13.02 49.13 13.33L49.13 13.33L49.13 13.33Q48.38 13.64 47.46 13.64L47.46 13.64L47.46 13.64Q46.28 13.64 45.37 13.15L45.37 13.15L45.37 13.15Q44.46 12.67 43.97 11.80L43.97 11.80L43.97 11.80Q43.47 10.93 43.47 9.84L43.47 9.84L43.47 9.84Q43.47 8.76 43.95 7.90L43.95 7.90L43.95 7.90Q44.44 7.03 45.28 6.54L45.28 6.54L45.28 6.54Q46.13 6.06 47.19 6.06L47.19 6.06L47.19 6.06Q48.26 6.06 49.09 6.54L49.09 6.54L49.09 6.54Q49.92 7.03 50.39 7.90L50.39 7.90L50.39 7.90Q50.86 8.76 50.86 9.88L50.86 9.88ZM47.19 7.20L47.19 7.20Q46.23 7.20 45.58 7.78L45.58 7.78L45.58 7.78Q44.93 8.37 44.81 9.32L44.81 9.32L49.57 9.32L49.57 9.32Q49.46 8.39 48.81 7.79L48.81 7.79L48.81 7.79Q48.16 7.20 47.19 7.20L47.19 7.20ZM58.39 13.55L55.61 10.09L54.07 11.52L54.07 13.55L52.72 13.55L52.72 3.16L54.07 3.16L54.07 9.83L58.11 6.13L59.74 6.13L56.62 9.20L60.05 13.55L58.39 13.55ZM62.64 7.38L62.64 7.38Q62.99 6.73 63.67 6.40L63.67 6.40L63.67 6.40Q64.36 6.06 65.34 6.06L65.34 6.06L65.34 7.36L65.34 7.36Q65.23 7.35 65.03 7.35L65.03 7.35L65.03 7.35Q63.94 7.35 63.32 8.00L63.32 8.00L63.32 8.00Q62.69 8.65 62.69 9.86L62.69 9.86L62.69 13.55L61.35 13.55L61.35 6.13L62.64 6.13L62.64 7.38Z"></path></g><!----><!----></svg>